<?xml version="1.0" encoding="utf-8"?>
<!-- Generator: Adobe Illustrator 25.4.1, SVG Export Plug-In . SVG Version: 6.00 Build 0)  -->
<svg version="1.1" id="Calque_1" xmlns="http://www.w3.org/2000/svg" xmlns:xlink="http://www.w3.org/1999/xlink" x="0px" y="0px"
	 viewBox="0 0 59.6 128.5" style="enable-background:new 0 0 59.6 128.5;" xml:space="preserve">
<style type="text/css">
	.st0{fill:#58111A;}
</style>
<g id="Calque_2_00000017500249573088577640000006962498125687228815_">
	<g id="Calque_1-2">
		<path class="st0" d="M44.8,61.7l-0.5,28.1c0.1,2.1-0.2,4.2-0.9,6.2c-1,2.4-3,4.3-5,6l-5.1,4.5c-0.6,0.8-1.6,1.2-2.6,1.2
			c-0.6-0.2-1.2-0.6-1.6-1.1C17.5,93.6,14.8,75.2,12.7,57.9c-0.2-1.8-0.4-3.7,0.3-5.3c0.8-1.5,2.1-2.7,3.6-3.6
			c5.9-4,12.3-7.3,18.9-9.9c3.3,8.6,6.4,17.3,9.3,26"/>
		<path class="st0" d="M41.8,61.7c-0.2,9.7-0.2,19.5-0.5,29.2c0.1,1.9-0.4,3.8-1.5,5.4c-1.1,1.4-2.4,2.7-3.8,3.8
			c-1.7,1.4-3.5,2.9-5,4.4c-0.5,0.5-0.2,0.1,0.2,0.1s1,0.7,0.5,0c-0.2-0.3-0.5-0.6-0.8-0.9c-0.6-0.7-1.2-1.4-1.8-2.2
			c-9.3-12.6-11.6-29-13.4-44.1c-0.2-1-0.2-2-0.1-3c0.2-0.9,0.7-1.6,1.4-2.1c1.8-1.4,3.8-2.6,5.8-3.7c4.3-2.6,8.9-4.8,13.6-6.7
			l-3.8-2c3.3,8.6,6.4,17.3,9.3,26c0.4,1.6,2.1,2.5,3.7,2.1c1.6-0.4,2.5-2.1,2.1-3.7l0,0c-2.9-8.7-6-17.4-9.3-26
			c-0.5-1.4-2.1-2.7-3.7-2.1c-4.8,1.9-9.4,4.1-13.8,6.6c-2.2,1.3-4.4,2.6-6.4,4s-3.9,3.1-4.6,5.6s-0.2,4.9,0.1,7.4
			c0.3,2.3,0.6,4.5,0.9,6.8c0.6,4.4,1.4,8.8,2.4,13.1c2,8.6,5.1,17.2,10.3,24.4c1.2,1.9,2.7,3.7,4.4,5.3c2.6,2.2,5.5,1,7.7-1
			c2-1.7,3.9-3.4,5.8-5.1c1.8-1.5,3.3-3.3,4.4-5.3c1.3-2.8,1.5-5.7,1.5-8.8l0.2-9.1l0.3-18.5C47.9,57.8,41.9,57.8,41.8,61.7
			L41.8,61.7z"/>
		<g id="ST9mdV">
			
				<image style="overflow:visible;enable-background:new    ;" width="1472" height="3112" id="ST9mdV-2" xlink:href="2AAE779D35402BC8.png"  transform="matrix(3.995224e-02 1.953991e-03 -1.953991e-03 3.995224e-02 5.59 0)">
			</image>
		</g>
	</g>
</g>
</svg>
